<svg width="33" height="34" viewBox="0 0 33 34" fill="none" xmlns="http://www.w3.org/2000/svg">
<rect x="0.265991" y="0.765991" width="32.468" height="32.468" rx="16.234" fill="#FF6E01"/>
<g clip-path="url(#clip0_11_794)">
<path d="M18.8145 25.9287H17.6293C17.0625 25.9287 16.5494 25.5931 16.3222 25.0738L14.7953 21.5521C14.7311 21.404 14.7464 21.2334 14.8359 21.0991C14.8391 21.0942 15.2633 20.4358 15.2633 19.5873C15.2633 19.1794 14.8653 18.8181 14.712 18.7133C14.5796 18.6251 14.5024 18.4781 14.5024 18.319V17.5737L13.5293 16.9898C13.4257 16.9848 13.0225 17.004 12.16 17.4693C11.5717 17.7867 10.9227 17.7675 10.3327 17.4154C9.44964 16.8885 8.92194 15.7844 8.92194 15.0215V12.7386C8.92194 12.1157 9.25581 11.5166 9.77381 11.2076L11.924 9.77457C12.0021 9.72248 12.0939 9.6947 12.1878 9.6947H15.2316C15.4139 9.6947 15.5801 9.79883 15.6596 9.96282L16.0369 10.741H17.0639L17.4319 10.373C17.5211 10.2838 17.6421 10.2337 17.7682 10.2337H19.5438C19.7165 10.2337 19.8757 10.3274 19.9595 10.4784L22.3602 14.7995H23.6023C23.865 14.7995 24.0779 15.0125 24.0779 15.2751V15.7825C24.0779 16.5435 23.6226 17.0584 23.1823 17.5563C22.7297 18.0681 22.3023 18.5515 22.3023 19.3336V20.8556C22.3023 21.0226 22.2146 21.1774 22.0714 21.2634C21.5873 21.5547 21.1006 21.9687 21.0342 22.1437C21.0402 22.4961 21.2008 23.0535 21.2634 23.242C21.312 23.3885 21.2866 23.5497 21.1952 23.6741L19.9586 25.3545C19.6776 25.7271 19.2494 25.9287 18.8145 25.9287Z" fill="white"/>
</g>
<defs>
<clipPath id="clip0_11_794">
<rect width="16.234" height="16.234" fill="white" transform="translate(8.383 9.6947)"/>
</clipPath>
</defs>
</svg>
